<svg xmlns="http://www.w3.org/2000/svg" xmlns:xlink= "http://www.w3.org/1999/xlink" viewBox="0 0 935 935">
  <path d="M169.5 106.5c12.5 2.5 28.1 12.8 40.5 26 12.4 13.2 26.5 29.5 44 111 6.333 35.333 18.9 107.4 18.5 113-.5 7 10 28 17.5 34.5s50.5 37.75 57 41c3 1.5 15.5 7.5 15.5 16s-34 27.5-61 47-34 48.5-34 66.5S274 589 274 597s.009 7.376-35.5 16c-35 8.5-47 42-47 53.5 0 6.5 5.5 24 24.5 23.5s30-17.5 51-17.5 24.409 7.134 25.5 11.5c.5 2 3 11.5-13 28.5s-18.5 36-18.5 51c0 10 16 45 15.5 65.5s-22 44.5-26.5 47.5c-112.993-59.07-242-188-248.5-411s133-329.5 168-359Z"/>
  <path d="M235 59.5c21.333-11.333 71.8-35.9 103-43.5 39-9.5 24.5-5.5 46.5-6.5S454.5 20 470 34s14 11.5 19.5 21 23.5 55 33.5 94 30 145.5 32 157.5 8 33 10.5 38.5 1.5 18.5 33 49c25.2 24.4 36.5 37.167 39 40.5 1.333 1 4 4.2 4 9 0 6-4.5 10.5-8 12.5s-24 14-29.5 20-16 18-16.5 29.5 9 31 11 33 7 15 7 20.5-5 15.5-16 21.5-26 8.5-32.5 10-15 1.5-17.5 6-2 11.5-1 14 8 13 16.5 17.5 16.5 6.5 29 13 15.5 8.5 18 11.5 4 11.5 2 14.5-5.5 15-8.5 17.5-13.5 16.5-13.5 36 7 46.5 11.5 55 13 24 13 30 0 27-3 34.5-18.5 36.5-32 48.5-48.5 37-74 41-70-1-77.5-1.5-52.5-8-54.5-8.5-27.539-6.826-30-8c10.5-4.5 35.4-16.7 43-27.5 9.5-13.5 18.5-23 18.5-42s-9-46.5-11.5-52.5-9.5-29-10-33.5-1.5-14.5-1.5-20 .492-21.732 8-37.5c5-10.5 4.5-12 4.5-18s-4-15.5-8.5-18.5c-.5 0-11.5-11-29.5-11s-15 4-24 7.5-14.349-2.071-15-5c-1.5-4.5-1-9.5 0-12 .978-3.911 14-15.5 26.5-19.5s21-8.5 25-12 10-11.5 10.5-19c.532-7.982-5-25-6.5-27s-2.286-15.505-2.5-20c-.786-16.5 7.5-27 20-39.5 16.5-16.5 31.5-30 35-34s19.5-19.5 19.5-23-5.5-8-10-10.5c-1-.5-35-28.5-35.5-30.5-2-2-18-17-20.5-21S351 362 349 354s-9.5-34-9.5-36-7.5-41.5-7-45-7.5-47.5-7-50-6-41-6.5-43.5-12-45.5-15-50.5-18.24-29.198-26.5-36c-8.5-7-13.5-15-21-19-2.333-1-7.6-3.4-10-5-3-2-7-3.5-9-5s-2-1.5-2.5-3v-1.5Z"/>
  <path d="M511 1c17.5 1 31.029 3.335 42.5 5.5 41.313 7.796 53.738 13.521 69 19C642 32.5 677 47 696 58s43.5 27 59 39.5 37 31 47 42c4.045 4.45 11.854 13.318 20.415 23.328C835.017 177.562 849.248 194.77 855.5 204c10.5 15.5 20.5 33.5 27 46s15.5 34.5 19.5 45.5 16 43.5 20.5 65 10 50 10.5 72 2 46 .5 64.5-5 44.5-8 60-12.5 49.5-17 62.5-13.5 33.5-20 48-24.5 44.5-30 53-20 28.5-29 39.5-19 21.5-32 34-25 24-39.5 35.5-34 25-48 33.5-37 20.5-38.5 21 6-6.5 13.5-19.5 14.5-24.5 16-34.5 3-17 3-29.5-1.5-23.5-2.5-32-3.5-28-4-37 4.5-26 6.5-32.5 3-9 3-19-3.5-15.5-7-18.5-25-11.5-31-15-16-9.5-21-14l-.537-.484c-5.428-4.883-19.064-17.151-21.963-21.016-3-4-5-5-5-9.5s8-3 11-3 14 2 19.5 2 25-1 30.5-4 15.5-9 18.5-14 4.5-9 4.5-12c0-8-4.5-20.5-10-29-5-11-8-11.5-8.5-19.5s-2-23-.5-26.5 13.5-21 19.5-26 20-19 21-22 1-2.5 1-7-3.5-7.5-7.5-10.5-26-19.5-28.5-22.5-25-26-29.5-33-15.5-24.5-17.5-31-6.5-23-8-30-7-29-9-37-7-34.5-9-43-4.5-29.5-6.5-39-8-38.5-10-47-9-40-11.5-47-8-26-13-35.5-10-17-17.5-25.5-10.5-13-18-19.5-13-9.5-19-12.5c-4.8-2.4-9.667-5.333-11.5-6.5Z"/>
</svg>